<?xml version="1.0" standalone="no"?>
<!DOCTYPE svg PUBLIC "-//W3C//DTD SVG 20010904//EN"
 "http://www.w3.org/TR/2001/REC-SVG-20010904/DTD/svg10.dtd">
<svg version="1.0" xmlns="http://www.w3.org/2000/svg"
 width="512.000000pt" height="512.000000pt" viewBox="0 0 512.000000 512.000000"
 preserveAspectRatio="xMidYMid meet">
<metadata>
Created by potrace 1.11, written by Peter Selinger 2001-2013
</metadata>
<g transform="translate(0.000000,512.000000) scale(0.100000,-0.100000)"
fill="#000000" stroke="none">
<path d="M2250 5105 c-489 -61 -949 -260 -1337 -582 -407 -337 -714 -831 -842
-1354 -47 -193 -62 -316 -68 -544 -6 -228 8 -392 48 -587 53 -257 158 -533
291 -761 l39 -68 47 34 c105 77 264 140 392 156 118 15 297 -4 408 -43 l42
-15 0 1459 c0 1380 1 1459 18 1464 9 3 546 136 1192 296 646 159 1182 293
1190 296 19 7 -28 32 -159 84 -202 81 -431 139 -651 166 -142 17 -469 16 -610
-1z"/>
<path d="M4007 3223 c-3 -1308 -5 -1454 -20 -1515 -62 -252 -214 -429 -470
-548 -117 -54 -203 -74 -327 -74 -217 -1 -350 66 -424 214 -98 196 -60 386
110 556 67 67 98 89 185 132 110 54 213 87 309 98 76 8 242 -11 347 -42 46
-13 85 -24 88 -24 8 0 6 2129 -2 2133 -7 3 -2277 -571 -2317 -586 -14 -6 -16
-146 -19 -1264 l-3 -1258 -22 -80 c-36 -131 -76 -200 -166 -290 -45 -45 -116
-103 -159 -129 l-77 -48 22 -18 c13 -9 63 -43 113 -75 850 -548 1956 -541
2799 19 155 104 262 192 396 326 417 416 668 937 736 1528 20 167 14 502 -11
662 -82 529 -324 1017 -695 1404 -104 108 -297 272 -377 320 -10 5 -13 -309
-16 -1441z"/>
</g>
</svg>
