<svg version="1" xmlns="http://www.w3.org/2000/svg" width="512pt" height="512pt" viewBox="0 0 512.000000 512.000000"><path d="M225 1.5c-48.9 6.1-94.9 26-133.7 58.2-40.7 33.7-71.4 83.1-84.2 135.4-4.7 19.3-6.2 31.6-6.8 54.4-.6 22.8.8 39.2 4.8 58.7 5.3 25.7 15.8 53.3 29.1 76.1l3.9 6.8 4.7-3.4c10.5-7.7 26.4-14 39.2-15.6 11.8-1.5 29.7.4 40.8 4.3l4.2 1.5v-145.9c0-138 .1-145.9 1.8-146.4.9-.3 54.6-13.6 119.2-29.6 64.6-15.9 118.2-29.3 119-29.6 1.9-.7-2.8-3.2-15.9-8.4-20.2-8.1-43.1-13.9-65.1-16.6-14.2-1.7-46.9-1.6-61 .1zM400.7 189.7c-.3 130.8-.5 145.4-2 151.5-6.2 25.2-21.4 42.9-47 54.8-11.7 5.4-20.3 7.4-32.7 7.4-21.7.1-35-6.6-42.4-21.4-9.8-19.6-6-38.6 11-55.6 6.7-6.7 9.8-8.9 18.5-13.2 11-5.4 21.3-8.7 30.9-9.8 7.6-.8 24.2 1.1 34.7 4.2 4.6 1.3 8.5 2.4 8.8 2.4.8 0 .6-212.9-.2-213.3-.7-.3-227.7 57.1-231.7 58.6-1.4.6-1.6 14.6-1.9 126.4l-.3 125.8-2.2 8c-3.6 13.1-7.6 20-16.6 29-4.5 4.5-11.6 10.3-15.9 12.9l-7.7 4.8 2.2 1.8c1.3.9 6.3 4.3 11.3 7.5 85 54.8 195.6 54.1 279.9-1.9 15.5-10.4 26.2-19.2 39.6-32.6 41.7-41.6 66.8-93.7 73.6-152.8 2-16.7 1.4-50.2-1.1-66.2-8.2-52.9-32.4-101.7-69.5-140.4-10.4-10.8-29.7-27.2-37.7-32-1-.5-1.3 30.9-1.6 144.1z"/></svg>