<svg width="82" height="32" viewBox="0 0 82 32" xmlns="http://www.w3.org/2000/svg" xmlns:sketch="http://www.bohemiancoding.com/sketch/ns"><path d="M26.794 9.719l16.364-4.165v15.035c-.797-.339-1.792-.508-2.821-.508-.631 0-1.826.372-2.589.779-1.427.779-2.29 2.032-2.29 3.352 0 .711.299 1.49.73 2.032.564.643 1.461.982 2.655.982 1.427 0 2.921-.643 4.116-1.727 1.095-1.05 1.66-2.404 1.66-4.097v-21.401l-19.285 4.775v20.588c-.664-.305-1.593-.474-2.622-.474-.631 0-1.295.135-2.025.44-1.826.745-2.954 2.133-2.954 3.657 0 .711.299 1.49.73 2.032.564.643 1.494.982 2.689.982 1.958 0 4.382-1.456 5.145-3.149.266-.61.498-1.795.498-2.641v-16.491zm-23.287 5.849l-.787.258.787.273 9.093 3.577v2.971l-12.599-5.744v-2.213l12.599-5.729v2.971l-9.093 3.638zm50.791 12.53h-2.466l9.033-23.962h2.451l-9.018 23.962zm14.584-16.243v-2.895l13.119 5.729v2.213l-13.119 5.744v-2.91l9.613-3.698.891-.258-.891-.288-9.613-3.638z" fill="#fff"/></svg>
