<?xml version="1.0" encoding="UTF-8" standalone="no"?>
<svg width="82px" height="32px" viewBox="0 0 82 32" version="1.1" xmlns="http://www.w3.org/2000/svg" xmlns:xlink="http://www.w3.org/1999/xlink" xmlns:sketch="http://www.bohemiancoding.com/sketch/ns">
    <!-- Generator: Sketch 3.4.4 (17249) - http://www.bohemiancoding.com/sketch -->
    <title>♫</title>
    <desc>Created with Sketch.</desc>
    <defs></defs>
    <g id="Page-1" stroke="none" stroke-width="1" fill="none" fill-rule="evenodd" sketch:type="MSPage">
        <g id="Desktop-HD-Copy-7" sketch:type="MSArtboardGroup" transform="translate(-284.000000, -23.000000)" fill="#FFFFFF">
            <path d="M310.793607,32.7185185 L327.157991,28.5534392 L327.157991,43.5883598 C326.361348,43.2497354 325.365543,43.0804233 324.336545,43.0804233 C323.705869,43.0804233 322.510904,43.4529101 321.747454,43.8592593 C320.320135,44.6380952 319.457104,45.8910053 319.457104,47.2116402 C319.457104,47.9227513 319.755846,48.7015873 320.187361,49.2433862 C320.75165,49.8867725 321.647874,50.2253968 322.842839,50.2253968 C324.270158,50.2253968 325.763865,49.5820106 326.95883,48.4984127 C328.054215,47.4486772 328.618504,46.0941799 328.618504,44.4010582 L328.618504,23 L309.333094,27.7746032 L309.333094,48.362963 C308.669224,48.0582011 307.739807,47.8888889 306.710809,47.8888889 C306.080133,47.8888889 305.416264,48.0243386 304.686007,48.3291005 C302.860366,49.0740741 301.731788,50.4624339 301.731788,51.9862434 C301.731788,52.6973545 302.030529,53.4761905 302.462044,54.0179894 C303.026333,54.6613757 303.955751,55 305.150716,55 C307.109131,55 309.532255,53.5439153 310.295705,51.8507937 C310.561253,51.2412698 310.793607,50.0560847 310.793607,49.2095238 L310.793607,32.7185185 Z M287.506277,38.5677399 L286.71885,38.8254009 L287.506277,39.0982183 L296.598826,42.6751584 L296.598826,45.6458374 L284,39.9015142 L284,37.6886615 L296.598826,31.9594948 L296.598826,34.9301738 L287.506277,38.5677399 Z M338.297659,51.0976184 L335.831379,51.0976184 L344.8645,27.1351514 L347.315922,27.1351514 L338.297659,51.0976184 Z M352.881175,34.8543912 L352.881175,31.9594948 L366,37.6886615 L366,39.9015142 L352.881175,45.6458374 L352.881175,42.7357845 L362.493723,39.0375922 L363.385149,38.7799313 L362.493723,38.4919573 L352.881175,34.8543912 Z" id="♫" sketch:type="MSShapeGroup"></path>
        </g>
    </g>
</svg>